<?xml version="1.0" encoding="UTF-8" standalone="no"?>
<!DOCTYPE svg PUBLIC "-//W3C//DTD SVG 1.1//EN" "http://www.w3.org/Graphics/SVG/1.1/DTD/svg11.dtd">
<svg width="100%" height="100%" viewBox="0 0 520 600" version="1.1" xmlns="http://www.w3.org/2000/svg" xmlns:xlink="http://www.w3.org/1999/xlink" xml:space="preserve" xmlns:serif="http://www.serif.com/" style="fill-rule:evenodd;clip-rule:evenodd;stroke-linejoin:round;stroke-miterlimit:2;">
    <g transform="matrix(1,0,0,1,-2736.65,-1859.98)">
        <g transform="matrix(1,0,0,1,2580.77,1739.98)">
            <g transform="matrix(1,0,0,1,-1674,-863.825)">
                <path d="M1829.89,1253.83L1829.89,1133.83L2089.69,983.825L2191.87,1042.82L1829.89,1253.83Z" style="fill:rgb(109,205,184);"/>
            </g>
            <g transform="matrix(1,0,0,1,-1674,-863.825)">
                <path d="M2191.87,1042.82L2297.54,1103.83L1829.89,1373.83L1829.89,1253.83L2191.87,1042.82Z" style="fill:rgb(0,169,206);"/>
            </g>
            <g transform="matrix(1,0,0,1,-1674,-863.825)">
                <path d="M2297.54,1103.83L2349.5,1133.83L2349.5,1193.83L1881.85,1463.83L1829.89,1433.83L1829.89,1373.83L2297.54,1103.83Z" style="fill:rgb(232,119,34);"/>
            </g>
            <g transform="matrix(1,0,0,1,-1674,-863.825)">
                <path d="M2349.5,1193.83L2349.5,1313.83L1985.77,1523.83L1881.85,1463.83L2349.5,1193.83Z" style="fill:rgb(203,51,59);"/>
            </g>
            <g transform="matrix(1,0,0,1,-1674,-863.825)">
                <path d="M2349.5,1313.83L2349.5,1433.83L2089.69,1583.83L1985.77,1523.83L2349.5,1313.83Z" style="fill:rgb(241,190,72);"/>
            </g>
        </g>
        <g transform="matrix(1,0,0,1,2736.65,1829.48)">
            <rect x="0" y="271" width="519.62" height="119.005" style="fill:rgb(60,16,83);"/>
        </g>
        <g transform="matrix(1,0,0,1,2753.02,1849.54)">
            <g transform="matrix(68,0,0,68,39,330.005)">
                <path d="M0.004,-0.513L0.102,-0.513C0.111,-0.513 0.119,-0.511 0.125,-0.507C0.131,-0.502 0.135,-0.497 0.137,-0.49L0.211,-0.216C0.215,-0.201 0.218,-0.186 0.22,-0.172C0.223,-0.158 0.225,-0.143 0.228,-0.129C0.231,-0.143 0.235,-0.158 0.239,-0.172C0.243,-0.186 0.248,-0.201 0.253,-0.216L0.338,-0.491C0.339,-0.498 0.343,-0.503 0.35,-0.508C0.356,-0.512 0.363,-0.514 0.371,-0.514L0.425,-0.514C0.434,-0.514 0.442,-0.512 0.448,-0.508C0.454,-0.503 0.458,-0.498 0.46,-0.491L0.544,-0.211C0.548,-0.197 0.552,-0.183 0.555,-0.169C0.559,-0.156 0.562,-0.142 0.566,-0.129C0.568,-0.143 0.57,-0.157 0.573,-0.172C0.576,-0.186 0.58,-0.201 0.584,-0.216L0.66,-0.49C0.662,-0.497 0.666,-0.502 0.672,-0.507C0.678,-0.511 0.686,-0.513 0.694,-0.513L0.788,-0.513L0.625,-0L0.526,-0C0.515,-0 0.507,-0.007 0.503,-0.022L0.41,-0.319C0.407,-0.328 0.404,-0.338 0.402,-0.348C0.399,-0.358 0.397,-0.367 0.396,-0.377C0.394,-0.367 0.391,-0.357 0.389,-0.347C0.387,-0.337 0.384,-0.328 0.381,-0.318L0.288,-0.022C0.283,-0.007 0.274,-0 0.261,-0L0.166,-0L0.004,-0.513Z" style="fill:white;fill-rule:nonzero;"/>
            </g>
            <g transform="matrix(68,0,0,68,92.788,330.005)">
                <path d="M0.468,-0L0.413,-0C0.401,-0 0.392,-0.002 0.385,-0.005C0.378,-0.009 0.373,-0.016 0.37,-0.027L0.359,-0.063C0.346,-0.051 0.333,-0.041 0.321,-0.032C0.308,-0.023 0.295,-0.016 0.282,-0.01C0.269,-0.004 0.255,0.001 0.24,0.004C0.225,0.007 0.208,0.008 0.19,0.008C0.168,0.008 0.148,0.005 0.13,-0.001C0.111,-0.007 0.095,-0.015 0.082,-0.027C0.069,-0.039 0.059,-0.053 0.052,-0.071C0.044,-0.088 0.041,-0.108 0.041,-0.131C0.041,-0.15 0.046,-0.169 0.056,-0.188C0.066,-0.207 0.083,-0.224 0.107,-0.239C0.13,-0.254 0.162,-0.267 0.201,-0.277C0.24,-0.287 0.289,-0.293 0.348,-0.294L0.348,-0.324C0.347,-0.358 0.34,-0.384 0.326,-0.4C0.311,-0.417 0.29,-0.425 0.263,-0.425C0.243,-0.425 0.226,-0.423 0.213,-0.418C0.199,-0.413 0.188,-0.408 0.178,-0.402C0.168,-0.396 0.159,-0.391 0.151,-0.387C0.142,-0.382 0.133,-0.38 0.123,-0.38C0.115,-0.38 0.108,-0.382 0.102,-0.386C0.095,-0.39 0.091,-0.396 0.087,-0.402L0.065,-0.442C0.124,-0.496 0.195,-0.523 0.278,-0.523C0.308,-0.523 0.335,-0.518 0.358,-0.508C0.382,-0.498 0.402,-0.484 0.418,-0.467C0.434,-0.449 0.447,-0.428 0.455,-0.404C0.464,-0.38 0.468,-0.353 0.468,-0.324L0.468,-0ZM0.228,-0.077C0.241,-0.077 0.252,-0.078 0.263,-0.081C0.274,-0.083 0.284,-0.086 0.293,-0.091C0.303,-0.096 0.312,-0.101 0.321,-0.108C0.33,-0.115 0.339,-0.123 0.348,-0.133L0.348,-0.219C0.312,-0.217 0.281,-0.214 0.257,-0.21C0.233,-0.205 0.214,-0.2 0.199,-0.193C0.184,-0.186 0.174,-0.177 0.168,-0.168C0.162,-0.159 0.159,-0.149 0.159,-0.138C0.159,-0.116 0.165,-0.1 0.178,-0.091C0.191,-0.082 0.207,-0.077 0.228,-0.077Z" style="fill:white;fill-rule:nonzero;"/>
            </g>
            <g transform="matrix(68,0,0,68,128.386,330.005)">
                <path d="M0.066,-0L0.066,-0.513L0.139,-0.513C0.151,-0.513 0.16,-0.511 0.165,-0.506C0.17,-0.501 0.173,-0.493 0.175,-0.482L0.183,-0.42C0.201,-0.452 0.222,-0.477 0.247,-0.495C0.272,-0.513 0.299,-0.523 0.33,-0.523C0.355,-0.523 0.376,-0.517 0.393,-0.505L0.377,-0.413C0.376,-0.407 0.374,-0.402 0.371,-0.4C0.367,-0.397 0.363,-0.396 0.357,-0.396C0.352,-0.396 0.345,-0.397 0.337,-0.4C0.328,-0.402 0.316,-0.403 0.302,-0.403C0.276,-0.403 0.254,-0.396 0.236,-0.382C0.218,-0.368 0.202,-0.347 0.19,-0.32L0.19,-0L0.066,-0Z" style="fill:white;fill-rule:nonzero;"/>
            </g>
            <g transform="matrix(68,0,0,68,156.164,330.005)">
                <path d="M0.004,-0.513L0.102,-0.513C0.111,-0.513 0.119,-0.511 0.125,-0.507C0.131,-0.502 0.135,-0.497 0.137,-0.49L0.211,-0.216C0.215,-0.201 0.218,-0.186 0.22,-0.172C0.223,-0.158 0.225,-0.143 0.228,-0.129C0.231,-0.143 0.235,-0.158 0.239,-0.172C0.243,-0.186 0.248,-0.201 0.253,-0.216L0.338,-0.491C0.339,-0.498 0.343,-0.503 0.35,-0.508C0.356,-0.512 0.363,-0.514 0.371,-0.514L0.425,-0.514C0.434,-0.514 0.442,-0.512 0.448,-0.508C0.454,-0.503 0.458,-0.498 0.46,-0.491L0.544,-0.211C0.548,-0.197 0.552,-0.183 0.555,-0.169C0.559,-0.156 0.562,-0.142 0.566,-0.129C0.568,-0.143 0.57,-0.157 0.573,-0.172C0.576,-0.186 0.58,-0.201 0.584,-0.216L0.66,-0.49C0.662,-0.497 0.666,-0.502 0.672,-0.507C0.678,-0.511 0.686,-0.513 0.694,-0.513L0.788,-0.513L0.625,-0L0.526,-0C0.515,-0 0.507,-0.007 0.503,-0.022L0.41,-0.319C0.407,-0.328 0.404,-0.338 0.402,-0.348C0.399,-0.358 0.397,-0.367 0.396,-0.377C0.394,-0.367 0.391,-0.357 0.389,-0.347C0.387,-0.337 0.384,-0.328 0.381,-0.318L0.288,-0.022C0.283,-0.007 0.274,-0 0.261,-0L0.166,-0L0.004,-0.513Z" style="fill:white;fill-rule:nonzero;"/>
            </g>
            <g transform="matrix(68,0,0,68,209.952,330.005)">
                <path d="M0.198,-0.513L0.198,-0L0.074,-0L0.074,-0.513L0.198,-0.513ZM0.216,-0.663C0.216,-0.652 0.214,-0.642 0.21,-0.633C0.205,-0.623 0.199,-0.615 0.192,-0.608C0.185,-0.601 0.177,-0.595 0.167,-0.591C0.157,-0.587 0.147,-0.585 0.136,-0.585C0.125,-0.585 0.115,-0.587 0.106,-0.591C0.096,-0.595 0.088,-0.601 0.081,-0.608C0.074,-0.615 0.068,-0.623 0.064,-0.633C0.06,-0.642 0.058,-0.652 0.058,-0.663C0.058,-0.674 0.06,-0.684 0.064,-0.694C0.068,-0.703 0.074,-0.712 0.081,-0.719C0.088,-0.725 0.096,-0.731 0.106,-0.735C0.115,-0.739 0.125,-0.741 0.136,-0.742C0.147,-0.741 0.157,-0.739 0.167,-0.735C0.177,-0.731 0.185,-0.725 0.192,-0.719C0.199,-0.712 0.205,-0.703 0.21,-0.694C0.214,-0.684 0.216,-0.674 0.216,-0.663Z" style="fill:white;fill-rule:nonzero;"/>
            </g>
            <g transform="matrix(68,0,0,68,228.38,330.005)">
                <path d="M0.427,-0.405C0.423,-0.4 0.419,-0.396 0.416,-0.394C0.412,-0.391 0.407,-0.39 0.401,-0.39C0.394,-0.39 0.388,-0.391 0.382,-0.395C0.376,-0.399 0.369,-0.403 0.361,-0.408C0.352,-0.413 0.342,-0.417 0.331,-0.421C0.319,-0.425 0.305,-0.427 0.288,-0.427C0.266,-0.427 0.247,-0.423 0.231,-0.415C0.215,-0.407 0.201,-0.396 0.19,-0.382C0.179,-0.367 0.171,-0.349 0.166,-0.328C0.161,-0.307 0.158,-0.284 0.158,-0.258C0.158,-0.23 0.161,-0.206 0.167,-0.185C0.173,-0.163 0.181,-0.145 0.192,-0.131C0.203,-0.116 0.216,-0.105 0.232,-0.098C0.248,-0.09 0.265,-0.087 0.285,-0.087C0.305,-0.087 0.321,-0.089 0.333,-0.094C0.345,-0.099 0.355,-0.104 0.364,-0.11C0.372,-0.116 0.379,-0.121 0.385,-0.126C0.391,-0.131 0.398,-0.133 0.406,-0.133C0.416,-0.133 0.424,-0.129 0.429,-0.122L0.464,-0.077C0.45,-0.061 0.436,-0.047 0.42,-0.036C0.404,-0.025 0.387,-0.017 0.37,-0.01C0.353,-0.004 0.335,0.001 0.317,0.004C0.298,0.006 0.28,0.008 0.262,0.008C0.23,0.008 0.201,0.002 0.173,-0.01C0.145,-0.022 0.12,-0.039 0.099,-0.062C0.078,-0.085 0.062,-0.112 0.05,-0.145C0.038,-0.178 0.032,-0.216 0.032,-0.258C0.032,-0.295 0.037,-0.33 0.048,-0.362C0.059,-0.394 0.075,-0.422 0.096,-0.446C0.117,-0.469 0.142,-0.488 0.174,-0.501C0.205,-0.514 0.24,-0.521 0.281,-0.521C0.319,-0.521 0.352,-0.515 0.381,-0.503C0.41,-0.49 0.436,-0.472 0.459,-0.45L0.427,-0.405Z" style="fill:white;fill-rule:nonzero;"/>
            </g>
            <g transform="matrix(68,0,0,68,260.816,330.005)">
                <path d="M0.191,-0.743L0.191,-0.318L0.214,-0.318C0.222,-0.318 0.229,-0.319 0.234,-0.321C0.238,-0.323 0.243,-0.328 0.249,-0.334L0.376,-0.492C0.382,-0.498 0.388,-0.503 0.394,-0.507C0.4,-0.511 0.409,-0.513 0.419,-0.513L0.532,-0.513L0.373,-0.323C0.367,-0.316 0.361,-0.309 0.355,-0.303C0.349,-0.297 0.343,-0.292 0.336,-0.288C0.343,-0.283 0.349,-0.277 0.354,-0.271C0.359,-0.264 0.365,-0.257 0.37,-0.249L0.541,-0L0.43,-0C0.42,-0 0.412,-0.002 0.405,-0.005C0.398,-0.008 0.392,-0.014 0.387,-0.022L0.257,-0.217C0.252,-0.224 0.247,-0.229 0.242,-0.232C0.237,-0.234 0.229,-0.235 0.219,-0.235L0.191,-0.235L0.191,-0L0.068,-0L0.068,-0.743L0.191,-0.743Z" style="fill:white;fill-rule:nonzero;"/>
            </g>
            <g transform="matrix(68,0,0,68,298.318,330.005)">
                <path d="M0.066,0.168L0.066,-0.513L0.142,-0.513C0.15,-0.513 0.156,-0.511 0.162,-0.508C0.168,-0.504 0.171,-0.498 0.173,-0.491L0.183,-0.443C0.204,-0.467 0.227,-0.486 0.254,-0.501C0.281,-0.515 0.313,-0.523 0.349,-0.523C0.377,-0.523 0.402,-0.517 0.425,-0.505C0.448,-0.493 0.468,-0.476 0.485,-0.454C0.502,-0.432 0.515,-0.405 0.524,-0.372C0.533,-0.34 0.538,-0.303 0.538,-0.261C0.538,-0.222 0.533,-0.187 0.523,-0.154C0.512,-0.121 0.497,-0.093 0.478,-0.069C0.459,-0.045 0.436,-0.026 0.409,-0.013C0.382,0.001 0.351,0.008 0.318,0.008C0.289,0.008 0.264,0.003 0.244,-0.006C0.224,-0.015 0.206,-0.027 0.19,-0.043L0.19,0.168L0.066,0.168ZM0.306,-0.425C0.28,-0.425 0.258,-0.42 0.24,-0.409C0.222,-0.398 0.205,-0.383 0.19,-0.363L0.19,-0.133C0.204,-0.116 0.219,-0.104 0.235,-0.097C0.252,-0.09 0.27,-0.087 0.289,-0.087C0.307,-0.087 0.324,-0.09 0.339,-0.097C0.354,-0.104 0.367,-0.115 0.378,-0.129C0.388,-0.143 0.396,-0.161 0.402,-0.183C0.408,-0.205 0.411,-0.231 0.411,-0.261C0.411,-0.291 0.408,-0.316 0.403,-0.337C0.398,-0.358 0.392,-0.375 0.383,-0.388C0.374,-0.401 0.363,-0.41 0.35,-0.416C0.337,-0.422 0.322,-0.425 0.306,-0.425Z" style="fill:white;fill-rule:nonzero;"/>
            </g>
            <g transform="matrix(68,0,0,68,336.772,330.005)">
                <rect x="0.074" y="-0.743" width="0.124" height="0.743" style="fill:white;fill-rule:nonzero;"/>
            </g>
            <g transform="matrix(68,0,0,68,355.2,330.005)">
                <path d="M0.285,-0.521C0.323,-0.521 0.358,-0.515 0.389,-0.503C0.42,-0.49 0.447,-0.473 0.469,-0.45C0.491,-0.427 0.508,-0.4 0.52,-0.367C0.532,-0.334 0.538,-0.298 0.538,-0.258C0.538,-0.217 0.532,-0.18 0.52,-0.148C0.508,-0.115 0.491,-0.087 0.469,-0.064C0.447,-0.041 0.42,-0.023 0.389,-0.011C0.358,0.001 0.323,0.008 0.285,0.008C0.247,0.008 0.212,0.001 0.181,-0.011C0.149,-0.023 0.122,-0.041 0.1,-0.064C0.078,-0.087 0.061,-0.115 0.049,-0.148C0.037,-0.18 0.031,-0.217 0.031,-0.258C0.031,-0.298 0.037,-0.334 0.049,-0.367C0.061,-0.4 0.078,-0.427 0.1,-0.45C0.122,-0.473 0.149,-0.49 0.181,-0.503C0.212,-0.515 0.247,-0.521 0.285,-0.521ZM0.285,-0.088C0.328,-0.088 0.359,-0.102 0.38,-0.131C0.4,-0.159 0.411,-0.201 0.411,-0.257C0.411,-0.312 0.4,-0.354 0.38,-0.383C0.359,-0.412 0.328,-0.427 0.285,-0.427C0.242,-0.427 0.21,-0.412 0.189,-0.383C0.168,-0.354 0.158,-0.312 0.158,-0.257C0.158,-0.202 0.168,-0.16 0.189,-0.131C0.21,-0.102 0.242,-0.088 0.285,-0.088Z" style="fill:white;fill-rule:nonzero;"/>
            </g>
            <g transform="matrix(68,0,0,68,393.858,330.005)">
                <path d="M0.235,0.008C0.19,0.008 0.156,-0.005 0.132,-0.03C0.108,-0.055 0.096,-0.09 0.096,-0.134L0.096,-0.421L0.044,-0.421C0.037,-0.42 0.032,-0.423 0.027,-0.427C0.022,-0.431 0.02,-0.438 0.02,-0.447L0.02,-0.496L0.102,-0.509L0.128,-0.649C0.129,-0.656 0.132,-0.661 0.137,-0.665C0.142,-0.668 0.148,-0.67 0.156,-0.67L0.22,-0.67L0.22,-0.509L0.355,-0.509L0.355,-0.421L0.22,-0.421L0.22,-0.143C0.22,-0.127 0.224,-0.114 0.232,-0.105C0.24,-0.096 0.25,-0.091 0.264,-0.092C0.271,-0.091 0.278,-0.092 0.283,-0.094C0.288,-0.096 0.292,-0.098 0.296,-0.1C0.3,-0.102 0.304,-0.104 0.307,-0.106C0.31,-0.108 0.313,-0.109 0.316,-0.109C0.319,-0.109 0.322,-0.108 0.325,-0.106C0.327,-0.104 0.329,-0.101 0.332,-0.098L0.369,-0.038C0.351,-0.023 0.33,-0.011 0.307,-0.004C0.284,0.004 0.26,0.008 0.235,0.008Z" style="fill:white;fill-rule:nonzero;"/>
            </g>
            <g transform="matrix(68,0,0,68,420.174,330.005)">
                <path d="M0.371,-0.413C0.367,-0.408 0.364,-0.404 0.36,-0.402C0.356,-0.4 0.352,-0.399 0.346,-0.399C0.34,-0.399 0.334,-0.4 0.327,-0.404C0.32,-0.407 0.312,-0.411 0.303,-0.415C0.294,-0.419 0.284,-0.423 0.272,-0.426C0.261,-0.429 0.247,-0.431 0.232,-0.431C0.207,-0.431 0.188,-0.426 0.174,-0.416C0.16,-0.405 0.153,-0.392 0.153,-0.375C0.153,-0.364 0.157,-0.355 0.164,-0.347C0.171,-0.34 0.18,-0.333 0.192,-0.328C0.204,-0.322 0.218,-0.317 0.233,-0.312C0.248,-0.308 0.263,-0.303 0.279,-0.298C0.294,-0.292 0.31,-0.286 0.325,-0.279C0.339,-0.272 0.353,-0.264 0.365,-0.253C0.377,-0.243 0.386,-0.23 0.393,-0.216C0.4,-0.201 0.404,-0.183 0.404,-0.163C0.404,-0.138 0.4,-0.115 0.391,-0.094C0.382,-0.073 0.368,-0.055 0.351,-0.04C0.334,-0.025 0.312,-0.013 0.287,-0.005C0.261,0.004 0.232,0.008 0.199,0.008C0.181,0.008 0.164,0.006 0.147,0.003C0.13,0 0.114,-0.004 0.099,-0.01C0.083,-0.016 0.069,-0.022 0.056,-0.03C0.043,-0.038 0.031,-0.046 0.021,-0.055L0.05,-0.102C0.053,-0.108 0.057,-0.112 0.063,-0.115C0.068,-0.118 0.074,-0.12 0.082,-0.12C0.089,-0.12 0.096,-0.117 0.103,-0.113C0.11,-0.109 0.118,-0.104 0.127,-0.099C0.136,-0.094 0.147,-0.089 0.159,-0.085C0.171,-0.081 0.186,-0.079 0.205,-0.079C0.22,-0.079 0.232,-0.08 0.243,-0.084C0.253,-0.087 0.262,-0.092 0.269,-0.098C0.276,-0.103 0.281,-0.11 0.284,-0.117C0.287,-0.125 0.289,-0.133 0.289,-0.141C0.289,-0.153 0.285,-0.162 0.278,-0.17C0.271,-0.178 0.261,-0.184 0.249,-0.19C0.237,-0.196 0.224,-0.201 0.209,-0.205C0.194,-0.21 0.178,-0.215 0.162,-0.22C0.146,-0.225 0.131,-0.232 0.116,-0.239C0.101,-0.246 0.087,-0.255 0.075,-0.266C0.063,-0.277 0.054,-0.291 0.047,-0.307C0.04,-0.323 0.036,-0.342 0.036,-0.365C0.036,-0.386 0.04,-0.405 0.049,-0.425C0.057,-0.444 0.069,-0.46 0.085,-0.474C0.101,-0.488 0.122,-0.5 0.146,-0.508C0.17,-0.517 0.198,-0.521 0.23,-0.521C0.265,-0.521 0.297,-0.515 0.326,-0.504C0.355,-0.492 0.379,-0.476 0.399,-0.458L0.371,-0.413Z" style="fill:white;fill-rule:nonzero;"/>
            </g>
        </g>
    </g>
</svg>
